<svg xmlns="http://www.w3.org/2000/svg" xmlns:xlink="http://www.w3.org/1999/xlink" width="378" zoomAndPan="magnify" viewBox="0 0 283.5 283.500005" height="378" preserveAspectRatio="xMidYMid meet" version="1.0"><defs><clipPath id="a9f208e5f6"><path d="M 0 0 L 283 0 L 283 283 L 0 283 Z M 0 0 " clip-rule="nonzero"/></clipPath><clipPath id="79805db424"><path d="M 131 209 L 152 209 L 152 215.308594 L 131 215.308594 Z M 131 209 " clip-rule="nonzero"/></clipPath><clipPath id="997aeb8fe0"><path d="M 100.230469 67.800781 L 182.59375 67.800781 L 182.59375 179 L 100.230469 179 Z M 100.230469 67.800781 " clip-rule="nonzero"/></clipPath><clipPath id="61920b0aec"><rect x="0" width="283" y="0" height="283"/></clipPath></defs><path fill="#ffffff" d="M 0 0 L 283 0 L 283 283 L 0 283 Z M 0 0 " fill-opacity="1" fill-rule="nonzero"/><g transform="matrix(1, 0, 0, 1, 0, 0.000000000000005262)"><g clip-path="url(#61920b0aec)"><g clip-path="url(#a9f208e5f6)"><rect x="-62.37" width="408.24" fill="#ab1c1c" height="408.240007" y="-62.370001" fill-opacity="1"/></g><path fill="#ffffff" d="M 156.273438 187.945312 C 157.324219 187.945312 158.171875 187.003906 158.171875 185.851562 L 158.171875 183.867188 C 158.171875 182.714844 157.324219 181.777344 156.273438 181.777344 L 126.6875 181.777344 C 125.636719 181.777344 124.785156 182.714844 124.785156 183.867188 L 124.785156 185.851562 C 124.785156 187.003906 125.636719 187.945312 126.6875 187.945312 Z M 156.273438 187.945312 " fill-opacity="1" fill-rule="nonzero"/><path fill="#ffffff" d="M 156.273438 196.964844 C 157.324219 196.964844 158.171875 196.023438 158.171875 194.867188 L 158.171875 192.886719 C 158.171875 191.730469 157.324219 190.792969 156.273438 190.792969 L 126.6875 190.792969 C 125.636719 190.792969 124.785156 191.730469 124.785156 192.886719 L 124.785156 194.867188 C 124.785156 196.023438 125.636719 196.964844 126.6875 196.964844 Z M 156.273438 196.964844 " fill-opacity="1" fill-rule="nonzero"/><path fill="#ffffff" d="M 156.273438 205.980469 C 157.324219 205.980469 158.171875 205.042969 158.171875 203.886719 L 158.171875 201.90625 C 158.171875 200.75 157.324219 199.808594 156.273438 199.808594 L 126.6875 199.808594 C 125.636719 199.808594 124.785156 200.75 124.785156 201.90625 L 124.785156 203.886719 C 124.785156 205.042969 125.636719 205.980469 126.6875 205.980469 Z M 156.273438 205.980469 " fill-opacity="1" fill-rule="nonzero"/><g clip-path="url(#79805db424)"><path fill="#ffffff" d="M 151.226562 209.136719 C 149.441406 212.695312 145.757812 215.191406 141.503906 215.191406 C 137.273438 215.191406 133.53125 212.660156 131.730469 209.136719 Z M 151.226562 209.136719 " fill-opacity="1" fill-rule="nonzero"/></g><g clip-path="url(#997aeb8fe0)"><path fill="#ffffff" d="M 141.480469 67.800781 C 118.699219 67.800781 100.230469 86.269531 100.230469 109.050781 C 100.230469 116.550781 102.335938 123.523438 105.730469 129.644531 C 115.859375 147.894531 118.542969 158.144531 120.195312 168.0625 C 121.582031 176.375 123.5 178.304688 129.78125 178.304688 L 153.175781 178.304688 C 159.457031 178.304688 161.375 176.375 162.761719 168.0625 C 164.414062 158.144531 167.097656 147.894531 177.230469 129.644531 C 180.621094 123.523438 182.726562 116.550781 182.726562 109.050781 C 182.726562 86.269531 164.257812 67.800781 141.480469 67.800781 Z M 141.480469 67.800781 " fill-opacity="1" fill-rule="nonzero"/></g></g></g></svg>